# xmcd CD database file
#
# Track frame offsets:
#	150
#	18407
#	35018
#	51841
#	68422
#	85961
#	102390
#	116056
#	134460
#	152371
#	167534
#	186819
#	209724
#	223466
#
# Disc length: 3277 seconds
#
# Revision: 0
# Processed by: cddbd v1.4PL0 Copyright (c) Steve Scherf et al.
# Submitted via: CDex 1.50
#
DISCID=ca0ccb0e
DTITLE=Various Artist - Urban Streen Anthem Vol. 2
DYEAR=2002
DGENRE=Jazz
TTITLE0=Metropolis-Lovin' You
TTITLE1=Derrick Dixon-Dear Hater
TTITLE2=Chanel-My Life(Remix)
TTITLE3=Selah-Hold On
TTITLE4=Devyn Austin-Shake It
TTITLE5=Ms Tery-Red Handed
TTITLE6=Duane Fowlkes-Things You Do
TTITLE7=Ms CRE-Secrets
TTITLE8=Natalie-Two Can Play The Same Game
TTITLE9=Samantha and Demetrius-In and Out
TTITLE10=Wade O. Brown-I'm all about you
TTITLE11=Damoine and Daniel's Don't Trust Your Friends
TTITLE12=Samantha Maynard-2YRs
TTITLE13=Front Street-The Spot
EXTD=YEAR: 2002
EXTT0=
EXTT1=
EXTT2=
EXTT3=
EXTT4=
EXTT5=
EXTT6=
EXTT7=
EXTT8=
EXTT9=
EXTT10=
EXTT11=
EXTT12=
EXTT13=
PLAYORDER=
